<svg width="150" height="48" viewBox="0 0 150 48" fill="none" xmlns="http://www.w3.org/2000/svg">
<g clip-path="url(#clip0_413_177)">
<path d="M83.5934 13.092C83.5934 14.8048 82.2133 16.1839 80.5005 16.1839C78.7877 16.1839 77.4085 14.8048 77.4085 13.092C77.4085 11.3792 78.7407 10 80.5005 10C82.2618 10.0475 83.5934 11.4272 83.5934 13.092ZM70.8435 19.3244V20.0857C70.8435 20.0857 69.3693 18.1819 66.2293 18.1819C61.0444 18.1819 57 22.1307 57 27.6013C57 33.0248 60.9968 37.0207 66.2293 37.0207C69.4168 37.0207 70.8435 35.0703 70.8435 35.0703V35.8787C70.8435 36.2593 71.1296 36.544 71.5098 36.544H75.3626V18.6562H71.5098C71.1296 18.6576 70.8435 18.9912 70.8435 19.3244ZM70.8435 30.7888C70.1306 31.8357 68.703 32.7396 66.9907 32.7396C63.9462 32.7396 61.6147 30.8368 61.6147 27.6013C61.6147 24.3663 63.9462 22.4634 66.9907 22.4634C68.6559 22.4634 70.1781 23.4148 70.8435 24.4138V30.7888ZM78.2174 18.6576H82.7841V36.5454H78.2174V18.6576ZM94.2969 18.1814C95.6761 18.1814 96.3899 18.42 96.3899 18.42V22.6535C96.3899 22.6535 92.5841 21.3689 90.206 24.0811V36.5925H85.6384V18.6576H89.4922C89.8729 18.6576 90.1575 18.9907 90.1575 19.3239V20.0852C91.0149 19.0858 92.8703 18.1814 94.2969 18.1814Z" fill="#F4F4F4"/>
<path d="M26.5 15.3125C24.0633 15.3125 21.7264 16.2805 20.0035 18.0035C18.2805 19.7264 17.3125 22.0633 17.3125 24.5V36.75C17.3125 39.1867 18.2805 41.5236 20.0035 43.2465C21.7264 44.9695 24.0633 45.9375 26.5 45.9375C28.9367 45.9375 31.2736 44.9695 32.9965 43.2465C34.7195 41.5236 35.6875 39.1867 35.6875 36.75V24.5C35.6875 22.0633 34.7195 19.7264 32.9965 18.0035C31.2736 16.2805 28.9367 15.3125 26.5 15.3125ZM19.9922 27.3634H33.0078V33.8713H19.9922V27.3634ZM26.5 43.2578C24.7765 43.2498 23.1259 42.5615 21.9072 41.3428C20.6885 40.1241 20.0002 38.4735 19.9922 36.75V36.5509H33.0078V36.75C32.9998 38.4735 32.3115 40.1241 31.0928 41.3428C29.8741 42.5615 28.2235 43.2498 26.5 43.2578ZM33.0078 24.6838H19.9922V24.5C19.9922 22.774 20.6778 21.1187 21.8983 19.8983C23.1187 18.6778 24.774 17.9922 26.5 17.9922C28.226 17.9922 29.8813 18.6778 31.1017 19.8983C32.3222 21.1187 33.0078 22.774 33.0078 24.5V24.6838Z" fill="#F4F4F4"/>
<path d="M48.9481 29.4153L38.75 19.9062V33.8406C38.75 35.4651 39.3953 37.023 40.544 38.1717C41.6926 39.3203 43.2505 39.9656 44.875 39.9656C46.4995 39.9656 48.0574 39.3203 49.206 38.1717C50.3547 37.023 51 35.4651 51 33.8406C50.9956 32.999 50.81 32.1681 50.456 31.4045C50.1019 30.6409 49.5877 29.9625 48.9481 29.4153ZM44.875 37.2859C43.9612 37.2859 43.0849 36.923 42.4388 36.2768C41.7927 35.6307 41.4297 34.7544 41.4297 33.8406V26.0312L47.1259 31.3447C47.4686 31.6329 47.7456 31.9911 47.9384 32.3951C48.1312 32.7992 48.2353 33.2399 48.2438 33.6875C48.2643 34.1463 48.1928 34.6045 48.0337 35.0353C47.8746 35.4661 47.6309 35.8608 47.317 36.196C47.0032 36.5313 46.6254 36.8004 46.2061 36.9876C45.7867 37.1747 45.3341 37.2762 44.875 37.2859Z" fill="#F4F4F4"/>
<path d="M2 33.8406C2 35.4651 2.64531 37.023 3.79397 38.1717C4.94263 39.3203 6.50055 39.9656 8.125 39.9656C9.74945 39.9656 11.3074 39.3203 12.456 38.1717C13.6047 37.023 14.25 35.4651 14.25 33.8406V19.9062L4.05188 29.4153C3.41618 29.9657 2.90456 30.6448 2.55084 31.4077C2.19713 32.1705 2.00938 32.9998 2 33.8406H2ZM5.7975 31.4519L11.5703 26.0312V33.8406C11.5703 34.7544 11.2073 35.6307 10.5612 36.2768C9.91508 36.923 9.03875 37.2859 8.125 37.2859C7.21125 37.2859 6.33492 36.923 5.6888 36.2768C5.04267 35.6307 4.67969 34.7544 4.67969 33.8406C4.68157 33.3852 4.78253 32.9357 4.97556 32.5232C5.16858 32.1107 5.44905 31.7451 5.7975 31.4519Z" fill="#F4F4F4"/>
<path d="M24.9688 8.42188C24.9688 7.36189 24.6544 6.32571 24.0655 5.44437C23.4766 4.56302 22.6396 3.8761 21.6603 3.47046C20.681 3.06482 19.6034 2.95869 18.5638 3.16548C17.5242 3.37227 16.5692 3.88271 15.8197 4.63223C15.0702 5.38175 14.5598 6.3367 14.353 7.37632C14.1462 8.41593 14.2523 9.49352 14.658 10.4728C15.0636 11.4521 15.7505 12.2891 16.6319 12.878C17.5132 13.4669 18.5494 13.7813 19.6094 13.7813C21.0308 13.7813 22.394 13.2166 23.399 12.2115C24.4041 11.2065 24.9688 9.84327 24.9688 8.42188ZM16.9297 8.42188C16.9297 7.89189 17.0869 7.3738 17.3813 6.93312C17.6757 6.49245 18.0943 6.14899 18.5839 5.94617C19.0736 5.74335 19.6123 5.69028 20.1322 5.79368C20.652 5.89708 21.1294 6.15229 21.5042 6.52705C21.879 6.90181 22.1342 7.37929 22.2376 7.8991C22.341 8.41891 22.2879 8.9577 22.0851 9.44735C21.8823 9.937 21.5388 10.3555 21.0981 10.65C20.6575 10.9444 20.1394 11.1016 19.6094 11.1016C18.9012 11.0936 18.2242 10.8087 17.7234 10.3079C17.2225 9.80708 16.9376 9.13011 16.9297 8.42188Z" fill="#F4F4F4"/>
<path d="M33.3906 3.0625C32.3306 3.0625 31.2945 3.37682 30.4131 3.96572C29.5318 4.55461 28.8449 5.39163 28.4392 6.37093C28.0336 7.35023 27.9274 8.42782 28.1342 9.46744C28.341 10.5071 28.8515 11.462 29.601 12.2115C30.3505 12.961 31.3054 13.4715 32.3451 13.6783C33.3847 13.8851 34.4623 13.7789 35.4416 13.3733C36.4209 12.9677 37.2579 12.2807 37.8468 11.3994C38.4357 10.518 38.75 9.48186 38.75 8.42188C38.75 7.00048 38.1854 5.6373 37.1803 4.63222C36.1752 3.62715 34.812 3.0625 33.3906 3.0625ZM33.3906 11.1016C32.8606 11.1016 32.3425 10.9444 31.9019 10.65C31.4612 10.3555 31.1177 9.937 30.9149 9.44735C30.7121 8.9577 30.659 8.4189 30.7624 7.89909C30.8658 7.37929 31.121 6.90181 31.4958 6.52705C31.8706 6.15229 32.348 5.89707 32.8678 5.79368C33.3877 5.69028 33.9265 5.74335 34.4161 5.94617C34.9058 6.14899 35.3243 6.49245 35.6187 6.93312C35.9132 7.37379 36.0703 7.89188 36.0703 8.42188C36.0624 9.1301 35.7775 9.80708 35.2767 10.3079C34.7758 10.8087 34.0989 11.0936 33.3906 11.1016Z" fill="#F4F4F4"/>
</g>
<path d="M98 35.5377H108.111V36.9948H98V35.5377Z" fill="#F4F4F4"/>
<path d="M98 32.7429H108.111V34.2051H98V32.7429Z" fill="#F4F4F4"/>
<path d="M100.884 29.9534H105.221V31.4156H100.884V29.9534Z" fill="#F4F4F4"/>
<path d="M100.884 27.1637H105.221V28.6259H100.884V27.1637Z" fill="#F4F4F4"/>
<path d="M100.884 24.374H105.221V25.8363H100.884V24.374Z" fill="#F4F4F4"/>
<path d="M100.884 21.5792H105.221V23.0415H100.884V21.5792Z" fill="#F4F4F4"/>
<path d="M108.111 18.7896H98V20.2518H108.111V18.7896Z" fill="#F4F4F4"/>
<path d="M108.111 16H98V17.4622H108.111V16Z" fill="#F4F4F4"/>
<path d="M109.553 34.2051H125.102C125.365 33.7541 125.561 33.2614 125.679 32.7429H109.553V34.2051Z" fill="#F4F4F4"/>
<path d="M123.892 27.1637H112.442V28.6259H125.102C124.773 28.0659 124.366 27.5733 123.892 27.1637Z" fill="#F4F4F4"/>
<path d="M112.442 24.374V25.8363H123.892C124.376 25.4266 124.783 24.934 125.102 24.374H112.442Z" fill="#F4F4F4"/>
<path d="M125.102 18.7896H109.553V20.2518H125.679C125.545 19.7333 125.349 19.2407 125.102 18.7896Z" fill="#F4F4F4"/>
<path d="M120.323 16H109.553V17.4622H124.036C123.068 16.56 121.754 16 120.323 16Z" fill="#F4F4F4"/>
<path d="M116.774 21.5792H112.442V23.0415H116.774V21.5792Z" fill="#F4F4F4"/>
<path d="M121.111 23.0415H125.643C125.772 22.5748 125.839 22.0822 125.839 21.5792H121.111V23.0415Z" fill="#F4F4F4"/>
<path d="M112.442 29.9534H116.774V31.4156H112.442V29.9534Z" fill="#F4F4F4"/>
<path d="M121.111 29.9534V31.4156H125.839C125.839 30.9126 125.772 30.4201 125.643 29.9534H121.111Z" fill="#F4F4F4"/>
<path d="M109.553 36.9844L120.323 36.9999C121.765 36.9999 123.068 36.44 124.041 35.5377H109.553V36.9844Z" fill="#F4F4F4"/>
<path d="M126.889 35.5377H134.111V36.9948H126.889V35.5377Z" fill="#F4F4F4"/>
<path d="M126.889 32.7429H134.111V34.2051H126.889V32.7429Z" fill="#F4F4F4"/>
<path d="M129.774 29.9534H134.111V31.4156H129.774V29.9534Z" fill="#F4F4F4"/>
<path d="M129.774 27.1637H134.111V28.6259H129.774V27.1637Z" fill="#F4F4F4"/>
<path d="M136.119 18.7896H126.889V20.2518H136.619L136.119 18.7896Z" fill="#F4F4F4"/>
<path d="M135.161 16H126.889V17.4622H135.661L135.161 16Z" fill="#F4F4F4"/>
<path d="M142.774 35.5377H150V36.9948H142.774V35.5377Z" fill="#F4F4F4"/>
<path d="M142.774 32.7429H150V34.2051H142.774V32.7429Z" fill="#F4F4F4"/>
<path d="M142.774 29.9534H147.111V31.4156H142.774V29.9534Z" fill="#F4F4F4"/>
<path d="M142.774 27.1637H147.111V28.6259H142.774V27.1637Z" fill="#F4F4F4"/>
<path d="M142.774 25.8363H147.111V24.374H142.774H138.849L138.442 25.5563L138.035 24.374H134.111H129.774V25.8363H134.111V24.4933L134.569 25.8363H142.315L142.774 24.4933V25.8363Z" fill="#F4F4F4"/>
<path d="M147.111 21.5792H139.807L139.307 23.0415H147.111V21.5792Z" fill="#F4F4F4"/>
<path d="M141.728 16L141.229 17.4622H150V16H141.728Z" fill="#F4F4F4"/>
<path d="M138.442 36.9844L138.942 35.5377H137.943L138.442 36.9844Z" fill="#F4F4F4"/>
<path d="M137.484 34.2051H139.4L139.915 32.7429H136.974L137.484 34.2051Z" fill="#F4F4F4"/>
<path d="M136.511 31.4156H140.374L140.884 29.9534H136.001L136.511 31.4156Z" fill="#F4F4F4"/>
<path d="M135.542 28.6259H141.347L141.842 27.1637H135.043L135.542 28.6259Z" fill="#F4F4F4"/>
<path d="M129.774 23.0415H137.577L137.077 21.5792H129.774V23.0415Z" fill="#F4F4F4"/>
<path d="M140.271 20.2518H150V18.7896H140.765L140.271 20.2518Z" fill="#F4F4F4"/>
<defs>
<clipPath id="clip0_413_177">
<rect width="150" height="48" fill="white"/>
</clipPath>
</defs>
</svg>
